<?xml version="1.0" standalone="no"?>
<!DOCTYPE svg PUBLIC "-//W3C//DTD SVG 20010904//EN"
 "http://www.w3.org/TR/2001/REC-SVG-20010904/DTD/svg10.dtd">
<svg version="1.0" xmlns="http://www.w3.org/2000/svg"
 width="1024.000000pt" height="1024.000000pt" viewBox="0 0 1024.000000 1024.000000"
 preserveAspectRatio="xMidYMid meet">

<g transform="translate(0.000000,1024.000000) scale(0.100000,-0.100000)"
fill="#000000" stroke="none">
<path d="M4875 10234 c-865 -53 -1600 -271 -2325 -687 -533 -306 -1052 -758
-1452 -1262 -407 -515 -718 -1122 -899 -1755 -349 -1223 -231 -2531 331 -3675
408 -829 1057 -1553 1845 -2056 687 -438 1460 -699 2310 -781 168 -16 702 -16
870 0 1248 120 2343 634 3202 1504 714 723 1178 1594 1378 2583 226 1117 77
2259 -425 3280 -646 1312 -1843 2297 -3250 2675 -291 78 -593 132 -890 160
-119 11 -589 21 -695 14z m785 -238 c593 -71 1094 -218 1625 -476 781 -380
1493 -1018 1964 -1758 116 -182 162 -265 264 -467 253 -506 416 -1069 484
-1665 25 -220 25 -800 0 -1020 -101 -891 -421 -1714 -934 -2403 -474 -636
-1094 -1154 -1778 -1487 -531 -258 -1036 -406 -1625 -476 -183 -21 -699 -30
-900 -15 -1191 91 -2271 589 -3115 1435 -815 818 -1307 1880 -1410 3041 -29
336 -15 792 35 1133 118 791 436 1562 907 2195 413 553 922 1007 1513 1347
582 335 1282 558 1940 619 63 6 133 13 155 15 108 10 748 -3 875 -18z"/>
<path d="M4850 9552 c-30 -1 -127 -9 -215 -18 -837 -82 -1643 -407 -2310 -931
-821 -645 -1391 -1561 -1595 -2565 -28 -140 -66 -384 -72 -463 -3 -48 -7 -49
138 5 59 22 185 62 279 90 171 49 563 140 602 140 28 0 33 7 93 155 256 632
632 1345 958 1820 341 496 748 940 1131 1229 355 269 739 462 1044 526 61 12
75 21 30 17 -16 -1 -53 -3 -83 -5z"/>
<path d="M6780 9213 c90 -73 247 -240 313 -333 37 -52 101 -162 142 -245 153
-308 224 -596 244 -989 29 -562 -85 -1191 -368 -2027 -98 -291 -182 -514 -619
-1644 -88 -227 -144 -401 -174 -535 -20 -94 -23 -130 -22 -340 1 -330 26 -438
116 -497 36 -24 51 -28 118 -28 72 0 83 3 171 47 228 115 521 364 1089 924
321 317 377 364 436 364 69 0 132 -82 158 -206 22 -106 30 -296 16 -389 -50
-333 -337 -802 -705 -1153 -570 -544 -1287 -863 -1890 -839 -325 13 -563 85
-726 221 -166 137 -281 396 -325 726 -20 157 -15 510 11 670 66 417 227 1038
425 1645 27 82 48 150 47 152 -3 2 -845 38 -1262 53 -159 6 -471 13 -691 17
l-402 6 -6 -29 c-32 -152 -105 -711 -131 -999 -42 -464 -54 -695 -75 -1390 -7
-250 -12 -314 -29 -384 -35 -141 -104 -271 -194 -367 l-29 -32 109 -75 c622
-433 1319 -693 2093 -782 196 -23 553 -30 755 -16 311 22 528 57 826 131 1247
311 2312 1164 2885 2310 114 228 165 352 244 590 328 988 288 2103 -109 3050
-429 1023 -1225 1852 -2221 2316 -90 42 -186 84 -214 95 l-51 19 45 -37z"/>
<path d="M5005 8099 c-252 -26 -512 -125 -725 -277 -334 -238 -669 -689 -902
-1216 -91 -206 -259 -688 -245 -702 4 -5 2106 -43 2369 -44 l117 0 29 93 c91
285 190 685 224 902 28 184 30 471 4 620 -45 251 -141 424 -293 525 -142 95
-322 126 -578 99z"/>
<path d="M1240 4693 c-284 -35 -562 -72 -566 -76 -14 -13 63 -426 115 -620 45
-167 196 -596 206 -585 2 2 17 73 34 158 52 255 246 1010 286 1113 8 18 2 19
-75 10z"/>
</g>
</svg>
