<?xml version="1.0" encoding="UTF-8" standalone="no"?>
<svg
   version="1.1"
   viewBox="0 0 256 256"
   width="256"
   height="256"
   id="svg3"
   sodipodi:docname="presentation_icon.svg"
   inkscape:version="1.3.2 (091e20e, 2023-11-25)"
   xmlns:inkscape="http://www.inkscape.org/namespaces/inkscape"
   xmlns:sodipodi="http://sodipodi.sourceforge.net/DTD/sodipodi-0.dtd"
   xmlns="http://www.w3.org/2000/svg"
   xmlns:svg="http://www.w3.org/2000/svg">
  <defs
     id="defs3" />
  <sodipodi:namedview
     id="namedview3"
     pagecolor="#ffffff"
     bordercolor="#000000"
     borderopacity="0.25"
     inkscape:showpageshadow="2"
     inkscape:pageopacity="0.0"
     inkscape:pagecheckerboard="0"
     inkscape:deskcolor="#d1d1d1"
     inkscape:zoom="1.2647714"
     inkscape:cx="89.739537"
     inkscape:cy="119.38916"
     inkscape:window-width="1312"
     inkscape:window-height="449"
     inkscape:window-x="0"
     inkscape:window-y="38"
     inkscape:window-maximized="0"
     inkscape:current-layer="svg3" />
  <g
     fill="#72a7cf"
     id="g3">
    <path
       d="m 58.253,146.27 h 85.193 v 4.7889 H 58.253 Z m 0,-9.5779 h 112.74 v 4.7889 H 58.253 Z m 0,-9.4154 h 139.04 v 4.7889 H 58.253 Z m 0,-9.4968 h 139.04 v 4.7889 H 58.253 Z m 68.301,-9.5779 h 70.739 v 4.7889 h -70.739 z m 0,-9.5779 h 70.739 v 4.7889 h -70.739 z m 0,-9.4154 h 70.739 v 4.7889 h -70.739 z m 0,-9.5779 h 70.739 v 4.7889 h -70.739 z m 0,-9.5779 h 70.739 v 4.7889 h -70.739 z m 0,-9.5779 h 70.739 v 4.7889 H 126.554 Z M 39.662,22.164 39.656,22.172 c -6.436,0 -11.691,5.2571 -11.691,11.693 v 0.56055 c 0,5.4006 3.7058,9.9567 8.6992,11.287 v 127.31 c 2.76e-4,2.7613 2.2387,4.9997 5,5 h 78.928 v 2.707 c -3.7922,2.4221 -6.332,6.6472 -6.332,11.449 0,2.1654 0.55917,4.1921 1.4688,6.0137 l -47.32,34.973 11.244,-0.0293 12.271,-0.0293 31.549,-28.125 c 1.3841,0.47794 2.8452,0.79492 4.3867,0.79492 1.4454,0 2.8158,-0.28884 4.125,-0.71094 l 31.811,28.041 23.506,0.0547 -9.0449,-6.6777 -38.273,-28.285 c 0.91314,-1.8241 1.4766,-3.8535 1.4766,-6.0234 0,-4.8358 -2.5787,-9.0813 -6.416,-11.494 v -2.6582 h 79.021 c 2.7613,-2.8e-4 4.9997,-2.2387 5,-5 v -127.24 c 5.1346,-1.2316 8.9805,-5.8582 8.9805,-11.359 v -0.5625 c 0,-6.4361 -5.2571,-11.691 -11.693,-11.691 h -176.69 z m 7.002,26.559 h 162.4 v 119.3 h -162.4 z"
       id="path1"
       style="fill:#000000" />
    <path
       d="m 59.912,60.443 c -0.95954,0 -1.7374,0.7779 -1.7375,1.7375 v 49.067 c 9.7e-5,0.95811 0.77795,1.735 1.7375,1.7375 h 60.068 c 0.96058,-0.002 1.7375,-0.77939 1.7375,-1.7375 v -3.686 -25.752 -19.629 c 0,-0.95959 -0.77692,-1.7375 -1.7375,-1.7375 z m 1.7375,3.475 h 56.593 v 17.544 12.479 l -9.0374,6.4759 -14.731,-13.654 -21.37,22.146 -11.454,-8.2109 V 63.915 Z"
       fill-rule="evenodd"
       id="path2"
       style="fill:#000000;stroke:#000000" />
    <path
       opacity="0.85"
       d="m 81.207,82.354 c 0,4.3102 -3.5668,7.543 -7.4906,7.543 -3.9235,0 -7.4906,-3.5919 -7.4906,-7.543 0,-3.9511 3.5668,-7.543 7.4906,-7.543 3.9235,0 7.4906,3.5919 7.4906,7.543 z"
       id="path3"
       style="fill:#000000" />
  </g>
</svg>
